<svg width="208" height="30" viewBox="0 0 208 30" fill="none" xmlns="http://www.w3.org/2000/svg">
<path d="M12.2365 3.512V4.232C11.4205 4.256 10.7965 4.352 10.3645 4.52C9.95655 4.664 9.68055 4.952 9.53655 5.384C9.39255 5.792 9.32055 6.44 9.32055 7.328V25.76C9.32055 26.456 9.36855 26.984 9.46455 27.344C9.58455 27.68 9.78855 27.908 10.0765 28.028C10.3645 28.124 10.7965 28.172 11.3725 28.172H12.8485C13.5685 28.172 14.2885 27.956 15.0085 27.524C15.7285 27.092 16.4005 26.492 17.0245 25.724C17.6485 24.932 18.1885 24.032 18.6445 23.024C19.1005 21.992 19.4245 20.888 19.6165 19.712H20.4445C20.3725 20.552 20.3365 21.632 20.3365 22.952C20.3365 23.552 20.3485 24.416 20.3725 25.544C20.3965 26.648 20.4685 27.8 20.5885 29C19.3645 28.952 17.9845 28.928 16.4485 28.928C14.9125 28.904 13.5445 28.892 12.3445 28.892C11.7205 28.892 10.9285 28.892 9.96855 28.892C9.00855 28.892 7.96455 28.904 6.83655 28.928C5.70855 28.928 4.56855 28.94 3.41655 28.964C2.26455 28.964 1.18455 28.976 0.176547 29V28.28C0.920547 28.232 1.47255 28.136 1.83255 27.992C2.21655 27.848 2.46855 27.56 2.58855 27.128C2.73255 26.696 2.80455 26.048 2.80455 25.184V7.328C2.80455 6.44 2.73255 5.792 2.58855 5.384C2.46855 4.952 2.21655 4.664 1.83255 4.52C1.47255 4.352 0.920547 4.256 0.176547 4.232V3.512C0.824547 3.536 1.68855 3.56 2.76855 3.584C3.84855 3.608 5.00055 3.62 6.22455 3.62C7.35255 3.62 8.45655 3.608 9.53655 3.584C10.6165 3.56 11.5165 3.536 12.2365 3.512ZM31.5745 9.848C33.3745 9.848 34.9465 10.172 36.2905 10.82C37.6585 11.444 38.7145 12.476 39.4585 13.916C40.2265 15.356 40.6105 17.276 40.6105 19.676C40.6105 22.076 40.2265 23.996 39.4585 25.436C38.7145 26.876 37.6585 27.92 36.2905 28.568C34.9465 29.192 33.3745 29.504 31.5745 29.504C29.7985 29.504 28.2265 29.192 26.8585 28.568C25.5145 27.92 24.4585 26.876 23.6905 25.436C22.9225 23.996 22.5385 22.076 22.5385 19.676C22.5385 17.276 22.9225 15.356 23.6905 13.916C24.4585 12.476 25.5145 11.444 26.8585 10.82C28.2265 10.172 29.7985 9.848 31.5745 9.848ZM31.5745 10.568C30.7345 10.568 30.0265 11.288 29.4505 12.728C28.8985 14.144 28.6225 16.46 28.6225 19.676C28.6225 22.892 28.8985 25.22 29.4505 26.66C30.0265 28.076 30.7345 28.784 31.5745 28.784C32.4385 28.784 33.1465 28.076 33.6985 26.66C34.2505 25.22 34.5265 22.892 34.5265 19.676C34.5265 16.46 34.2505 14.144 33.6985 12.728C33.1465 11.288 32.4385 10.568 31.5745 10.568ZM52.1057 9.848C53.1137 9.848 54.0137 9.956 54.8057 10.172C55.5977 10.364 56.2457 10.616 56.7497 10.928C57.3737 11.312 57.8777 11.804 58.2617 12.404C58.6457 13.004 58.8377 13.7 58.8377 14.492C58.8377 15.404 58.5377 16.172 57.9377 16.796C57.3377 17.396 56.5817 17.696 55.6697 17.696C54.7337 17.696 53.9897 17.42 53.4377 16.868C52.9097 16.316 52.6457 15.608 52.6457 14.744C52.6457 13.904 52.9097 13.196 53.4377 12.62C53.9657 12.044 54.5897 11.66 55.3097 11.468C55.1177 11.276 54.8657 11.12 54.5537 11C54.2657 10.88 53.9177 10.82 53.5097 10.82C52.6937 10.82 52.0097 11.06 51.4577 11.54C50.9057 11.996 50.4497 12.632 50.0897 13.448C49.7537 14.24 49.5017 15.14 49.3337 16.148C49.1897 17.132 49.1177 18.152 49.1177 19.208C49.1177 20.984 49.3457 22.376 49.8017 23.384C50.2817 24.368 50.8697 25.064 51.5657 25.472C52.2857 25.856 53.0177 26.048 53.7617 26.048C54.1457 26.048 54.5897 25.988 55.0937 25.868C55.5977 25.748 56.1257 25.496 56.6777 25.112C57.2537 24.728 57.7937 24.152 58.2977 23.384L58.9097 23.6C58.6457 24.536 58.2017 25.46 57.5777 26.372C56.9537 27.284 56.1497 28.04 55.1657 28.64C54.1817 29.216 52.9817 29.504 51.5657 29.504C49.9817 29.504 48.5417 29.18 47.2457 28.532C45.9737 27.884 44.9537 26.84 44.1857 25.4C43.4177 23.96 43.0337 22.076 43.0337 19.748C43.0337 17.492 43.4297 15.644 44.2217 14.204C45.0137 12.74 46.0937 11.648 47.4617 10.928C48.8537 10.208 50.4017 9.848 52.1057 9.848ZM65.5697 29.252C64.4657 29.252 63.5537 29.048 62.8337 28.64C62.1137 28.208 61.5857 27.644 61.2497 26.948C60.9137 26.252 60.7457 25.508 60.7457 24.716C60.7457 23.708 60.9737 22.88 61.4297 22.232C61.9097 21.584 62.5217 21.068 63.2657 20.684C64.0097 20.276 64.7897 19.94 65.6057 19.676C66.4217 19.412 67.2017 19.16 67.9457 18.92C68.6897 18.656 69.2897 18.356 69.7457 18.02C70.2017 17.66 70.4297 17.204 70.4297 16.652V13.664C70.4297 13.136 70.3457 12.644 70.1777 12.188C70.0337 11.708 69.7577 11.324 69.3497 11.036C68.9657 10.724 68.4257 10.568 67.7297 10.568C67.2977 10.568 66.8777 10.628 66.4697 10.748C66.0617 10.868 65.7017 11.06 65.3897 11.324C66.1577 11.588 66.7217 11.984 67.0817 12.512C67.4657 13.04 67.6577 13.628 67.6577 14.276C67.6577 15.164 67.3457 15.872 66.7217 16.4C66.1217 16.904 65.4017 17.156 64.5617 17.156C63.6497 17.156 62.9417 16.868 62.4377 16.292C61.9577 15.716 61.7177 15.02 61.7177 14.204C61.7177 13.484 61.8977 12.884 62.2577 12.404C62.6177 11.9 63.1457 11.444 63.8417 11.036C64.5377 10.628 65.3777 10.328 66.3617 10.136C67.3457 9.944 68.3897 9.848 69.4937 9.848C70.6217 9.848 71.6537 9.968 72.5897 10.208C73.5497 10.424 74.3657 10.868 75.0377 11.54C75.5657 12.092 75.9017 12.764 76.0457 13.556C76.1897 14.348 76.2617 15.356 76.2617 16.58V26.3C76.2617 26.9 76.3097 27.32 76.4057 27.56C76.5257 27.776 76.7057 27.884 76.9457 27.884C77.1617 27.884 77.3657 27.824 77.5577 27.704C77.7497 27.584 77.9417 27.452 78.1337 27.308L78.5297 27.92C78.0017 28.352 77.3777 28.688 76.6577 28.928C75.9377 29.144 75.1577 29.252 74.3177 29.252C73.3577 29.252 72.6017 29.132 72.0497 28.892C71.5217 28.628 71.1377 28.28 70.8977 27.848C70.6817 27.416 70.5617 26.936 70.5377 26.408C70.0097 27.272 69.3497 27.968 68.5577 28.496C67.7657 29 66.7697 29.252 65.5697 29.252ZM68.5577 26.66C68.9417 26.66 69.2777 26.588 69.5657 26.444C69.8777 26.276 70.1657 26 70.4297 25.616V18.128C70.2377 18.464 69.9737 18.788 69.6377 19.1C69.3257 19.388 68.9897 19.688 68.6297 20C68.2697 20.288 67.9217 20.612 67.5857 20.972C67.2737 21.332 67.0097 21.764 66.7937 22.268C66.6017 22.748 66.5057 23.336 66.5057 24.032C66.5057 24.968 66.6977 25.64 67.0817 26.048C67.4657 26.456 67.9577 26.66 68.5577 26.66ZM87.4006 0.847998V25.652C87.4006 26.66 87.5566 27.344 87.8686 27.704C88.2046 28.064 88.7686 28.244 89.5606 28.244V29C89.1046 28.976 88.4086 28.952 87.4726 28.928C86.5366 28.88 85.5766 28.856 84.5926 28.856C83.6326 28.856 82.6486 28.88 81.6406 28.928C80.6566 28.952 79.9126 28.976 79.4086 29V28.244C80.2006 28.244 80.7526 28.064 81.0646 27.704C81.4006 27.344 81.5686 26.66 81.5686 25.652V5.132C81.5686 4.076 81.4126 3.296 81.1006 2.792C80.8126 2.264 80.2486 2 79.4086 2V1.244C80.1766 1.316 80.9206 1.352 81.6406 1.352C82.7446 1.352 83.7766 1.316 84.7366 1.244C85.6966 1.148 86.5846 1.016 87.4006 0.847998Z" fill="black"/>
<path d="M112.163 9.848C113.987 9.848 115.499 10.604 116.699 12.116C117.923 13.604 118.535 15.908 118.535 19.028C118.535 21.62 118.151 23.696 117.383 25.256C116.639 26.792 115.631 27.884 114.359 28.532C113.111 29.18 111.731 29.504 110.219 29.504C109.331 29.504 108.503 29.396 107.735 29.18C106.991 28.964 106.307 28.568 105.683 27.992L106.151 27.632C106.535 28.016 106.967 28.304 107.447 28.496C107.927 28.664 108.395 28.748 108.851 28.748C110.075 28.748 110.975 28.004 111.551 26.516C112.151 25.004 112.451 22.724 112.451 19.676C112.451 17.588 112.331 15.956 112.091 14.78C111.875 13.604 111.551 12.776 111.119 12.296C110.711 11.792 110.219 11.54 109.643 11.54C108.899 11.54 108.215 11.84 107.591 12.44C106.991 13.016 106.667 13.808 106.619 14.816L106.547 13.304C107.027 12.152 107.759 11.288 108.743 10.712C109.727 10.136 110.867 9.848 112.163 9.848ZM106.655 0.847998V28.676C105.959 28.46 105.251 28.376 104.531 28.424C103.811 28.448 103.151 28.568 102.551 28.784C101.951 28.976 101.471 29.24 101.111 29.576L100.571 29.252C100.691 28.916 100.763 28.58 100.787 28.244C100.811 27.908 100.823 27.572 100.823 27.236V5.168C100.823 4.088 100.667 3.296 100.355 2.792C100.067 2.264 99.5033 2 98.6633 2V1.244C99.4313 1.316 100.175 1.352 100.895 1.352C101.999 1.352 103.031 1.316 103.991 1.244C104.951 1.148 105.839 1.016 106.655 0.847998ZM125.511 29.252C124.407 29.252 123.495 29.048 122.775 28.64C122.055 28.208 121.527 27.644 121.191 26.948C120.855 26.252 120.687 25.508 120.687 24.716C120.687 23.708 120.915 22.88 121.371 22.232C121.851 21.584 122.463 21.068 123.207 20.684C123.951 20.276 124.731 19.94 125.547 19.676C126.363 19.412 127.143 19.16 127.887 18.92C128.631 18.656 129.231 18.356 129.687 18.02C130.143 17.66 130.371 17.204 130.371 16.652V13.664C130.371 13.136 130.287 12.644 130.119 12.188C129.975 11.708 129.699 11.324 129.291 11.036C128.907 10.724 128.367 10.568 127.671 10.568C127.239 10.568 126.819 10.628 126.411 10.748C126.003 10.868 125.643 11.06 125.331 11.324C126.099 11.588 126.663 11.984 127.023 12.512C127.407 13.04 127.599 13.628 127.599 14.276C127.599 15.164 127.287 15.872 126.663 16.4C126.063 16.904 125.343 17.156 124.503 17.156C123.591 17.156 122.883 16.868 122.379 16.292C121.899 15.716 121.659 15.02 121.659 14.204C121.659 13.484 121.839 12.884 122.199 12.404C122.559 11.9 123.087 11.444 123.783 11.036C124.479 10.628 125.319 10.328 126.303 10.136C127.287 9.944 128.331 9.848 129.435 9.848C130.563 9.848 131.595 9.968 132.531 10.208C133.491 10.424 134.307 10.868 134.979 11.54C135.507 12.092 135.843 12.764 135.987 13.556C136.131 14.348 136.203 15.356 136.203 16.58V26.3C136.203 26.9 136.251 27.32 136.347 27.56C136.467 27.776 136.647 27.884 136.887 27.884C137.103 27.884 137.307 27.824 137.499 27.704C137.691 27.584 137.883 27.452 138.075 27.308L138.471 27.92C137.943 28.352 137.319 28.688 136.599 28.928C135.879 29.144 135.099 29.252 134.259 29.252C133.299 29.252 132.543 29.132 131.991 28.892C131.463 28.628 131.079 28.28 130.839 27.848C130.623 27.416 130.503 26.936 130.479 26.408C129.951 27.272 129.291 27.968 128.499 28.496C127.707 29 126.711 29.252 125.511 29.252ZM128.499 26.66C128.883 26.66 129.219 26.588 129.507 26.444C129.819 26.276 130.107 26 130.371 25.616V18.128C130.179 18.464 129.915 18.788 129.579 19.1C129.267 19.388 128.931 19.688 128.571 20C128.211 20.288 127.863 20.612 127.527 20.972C127.215 21.332 126.951 21.764 126.735 22.268C126.543 22.748 126.447 23.336 126.447 24.032C126.447 24.968 126.639 25.64 127.023 26.048C127.407 26.456 127.899 26.66 128.499 26.66ZM146.802 9.848C147.858 9.848 148.77 9.968 149.538 10.208C150.306 10.448 150.87 10.676 151.23 10.892C152.07 11.42 152.574 11.084 152.742 9.884H153.498C153.45 10.58 153.414 11.42 153.39 12.404C153.366 13.364 153.354 14.66 153.354 16.292H152.598C152.502 15.404 152.286 14.528 151.95 13.664C151.638 12.8 151.17 12.092 150.546 11.54C149.922 10.964 149.106 10.676 148.098 10.676C147.45 10.676 146.898 10.868 146.442 11.252C146.01 11.636 145.794 12.164 145.794 12.836C145.794 13.556 146.01 14.192 146.442 14.744C146.874 15.296 147.426 15.824 148.098 16.328C148.794 16.832 149.49 17.372 150.186 17.948C150.954 18.524 151.638 19.112 152.238 19.712C152.862 20.288 153.354 20.924 153.714 21.62C154.098 22.292 154.29 23.108 154.29 24.068C154.29 25.148 153.966 26.096 153.318 26.912C152.67 27.728 151.818 28.364 150.762 28.82C149.706 29.276 148.53 29.504 147.234 29.504C146.442 29.504 145.746 29.42 145.146 29.252C144.57 29.108 144.09 28.916 143.706 28.676C143.346 28.508 143.022 28.364 142.734 28.244C142.47 28.124 142.206 28.04 141.942 27.992C141.702 27.968 141.498 28.076 141.33 28.316C141.162 28.556 141.03 28.868 140.934 29.252H140.178C140.226 28.484 140.262 27.548 140.286 26.444C140.31 25.34 140.322 23.876 140.322 22.052H141.078C141.222 23.348 141.486 24.488 141.87 25.472C142.278 26.456 142.818 27.236 143.49 27.812C144.162 28.364 144.954 28.64 145.866 28.64C146.274 28.64 146.646 28.568 146.982 28.424C147.342 28.256 147.63 28.004 147.846 27.668C148.086 27.332 148.206 26.9 148.206 26.372C148.206 25.316 147.87 24.44 147.198 23.744C146.526 23.024 145.698 22.244 144.714 21.404C143.946 20.756 143.226 20.12 142.554 19.496C141.906 18.872 141.366 18.188 140.934 17.444C140.526 16.7 140.322 15.86 140.322 14.924C140.322 13.844 140.622 12.932 141.222 12.188C141.846 11.42 142.65 10.844 143.634 10.46C144.618 10.052 145.674 9.848 146.802 9.848ZM164.111 0.847998V25.652C164.111 26.66 164.267 27.344 164.579 27.704C164.891 28.064 165.431 28.244 166.199 28.244V29C165.743 28.976 165.059 28.952 164.147 28.928C163.235 28.88 162.299 28.856 161.339 28.856C160.355 28.856 159.359 28.88 158.351 28.928C157.367 28.952 156.623 28.976 156.119 29V28.244C156.911 28.244 157.463 28.064 157.775 27.704C158.111 27.344 158.279 26.66 158.279 25.652V5.168C158.279 4.088 158.123 3.296 157.811 2.792C157.523 2.264 156.959 2 156.119 2V1.244C156.887 1.316 157.631 1.352 158.351 1.352C159.455 1.352 160.487 1.316 161.447 1.244C162.407 1.148 163.295 1.016 164.111 0.847998ZM175.991 10.352V11.072C175.175 11.264 174.359 11.636 173.543 12.188C172.727 12.716 171.899 13.4 171.059 14.24L169.043 16.292L169.331 15.716L175.307 26.372C175.547 26.78 175.787 27.152 176.027 27.488C176.291 27.824 176.603 28.076 176.963 28.244V29C176.603 28.976 176.027 28.952 175.235 28.928C174.467 28.88 173.687 28.856 172.895 28.856C171.983 28.856 171.059 28.88 170.123 28.928C169.211 28.952 168.515 28.976 168.035 29V28.244C168.515 28.244 168.839 28.136 169.007 27.92C169.175 27.704 169.151 27.404 168.935 27.02L165.587 20.468C165.371 20.06 165.131 19.796 164.867 19.676C164.627 19.556 164.327 19.496 163.967 19.496V18.812C164.375 18.788 164.735 18.728 165.047 18.632C165.383 18.536 165.695 18.356 165.983 18.092L168.719 15.464C169.559 14.672 169.979 13.964 169.979 13.34C170.003 12.692 169.739 12.164 169.187 11.756C168.659 11.348 167.975 11.12 167.135 11.072V10.352C167.807 10.376 168.539 10.4 169.331 10.424C170.147 10.448 170.843 10.46 171.419 10.46C171.899 10.46 172.427 10.46 173.003 10.46C173.603 10.436 174.167 10.424 174.695 10.424C175.247 10.4 175.679 10.376 175.991 10.352ZM186.438 9.848C188.55 9.848 190.206 10.472 191.406 11.72C192.606 12.968 193.206 15.02 193.206 17.876H181.65L181.614 17.192H188.31C188.358 16.016 188.31 14.936 188.166 13.952C188.022 12.944 187.782 12.14 187.446 11.54C187.134 10.94 186.714 10.64 186.186 10.64C185.466 10.64 184.854 11.156 184.35 12.188C183.846 13.22 183.534 14.972 183.414 17.444L183.558 17.696C183.51 17.96 183.486 18.236 183.486 18.524C183.486 18.788 183.486 19.076 183.486 19.388C183.486 21.044 183.702 22.364 184.134 23.348C184.59 24.332 185.154 25.028 185.826 25.436C186.498 25.844 187.194 26.048 187.914 26.048C188.322 26.048 188.778 25.988 189.282 25.868C189.786 25.748 190.314 25.496 190.866 25.112C191.418 24.728 191.946 24.164 192.45 23.42L193.062 23.636C192.798 24.572 192.342 25.496 191.694 26.408C191.07 27.296 190.266 28.04 189.282 28.64C188.298 29.216 187.11 29.504 185.718 29.504C184.134 29.504 182.718 29.18 181.47 28.532C180.222 27.86 179.226 26.816 178.482 25.4C177.762 23.96 177.402 22.088 177.402 19.784C177.402 17.504 177.798 15.632 178.59 14.168C179.382 12.704 180.462 11.624 181.83 10.928C183.198 10.208 184.734 9.848 186.438 9.848ZM202.958 4.484V10.352H206.846V11.072H202.958V25.796C202.958 26.396 203.066 26.828 203.282 27.092C203.498 27.332 203.822 27.452 204.254 27.452C204.614 27.452 204.986 27.332 205.37 27.092C205.778 26.852 206.15 26.444 206.486 25.868L207.062 26.228C206.606 27.212 205.97 28.004 205.154 28.604C204.362 29.204 203.318 29.504 202.022 29.504C201.23 29.504 200.522 29.396 199.898 29.18C199.298 28.988 198.794 28.688 198.386 28.28C197.858 27.752 197.51 27.104 197.342 26.336C197.198 25.544 197.126 24.524 197.126 23.276V11.072H194.246V10.352H197.126V5.852C198.254 5.852 199.286 5.744 200.222 5.528C201.182 5.312 202.094 4.964 202.958 4.484Z" fill="#5FAE54"/>
</svg>
